<mxfile host="app.diagrams.net" agent="Mozilla/5.0 (Windows NT 10.0; Win64; x64) AppleWebKit/537.36 (KHTML, like Gecko) Chrome/136.0.0.0 Safari/537.36 Edg/136.0.0.0" version="26.3.0">
  <diagram name="Страница — 1" id="4Z8qOZgvi4zewUpv0sTu">
    <mxGraphModel dx="1852" dy="599" grid="1" gridSize="10" guides="1" tooltips="1" connect="1" arrows="1" fold="1" page="1" pageScale="1" pageWidth="827" pageHeight="1169" math="0" shadow="0">
      <root>
        <mxCell id="0" />
        <mxCell id="1" parent="0" />
        <mxCell id="HoTX6iGjxj5oOvx8-iKF-2" value="Увольнение сотрудника" style="swimlane;html=1;childLayout=stackLayout;resizeParent=1;resizeParentMax=0;horizontal=1;startSize=20;horizontalStack=0;whiteSpace=wrap;" vertex="1" parent="1">
          <mxGeometry width="820" height="760" as="geometry" />
        </mxCell>
        <mxCell id="HoTX6iGjxj5oOvx8-iKF-3" value="Отдел кадров" style="swimlane;html=1;startSize=20;horizontal=0;" vertex="1" parent="HoTX6iGjxj5oOvx8-iKF-2">
          <mxGeometry y="20" width="820" height="250" as="geometry" />
        </mxCell>
        <mxCell id="HoTX6iGjxj5oOvx8-iKF-6" value="" style="edgeStyle=elbowEdgeStyle;fontSize=12;html=1;endArrow=blockThin;endFill=1;rounded=0;exitX=1;exitY=0.5;exitDx=0;exitDy=0;exitPerimeter=0;" edge="1" parent="HoTX6iGjxj5oOvx8-iKF-3" source="HoTX6iGjxj5oOvx8-iKF-13">
          <mxGeometry width="160" relative="1" as="geometry">
            <mxPoint x="110" y="54.5" as="sourcePoint" />
            <mxPoint x="180" y="55" as="targetPoint" />
          </mxGeometry>
        </mxCell>
        <mxCell id="HoTX6iGjxj5oOvx8-iKF-13" value="Написано&amp;nbsp;&lt;div&gt;заявление&amp;nbsp;&lt;div&gt;на увольнение&lt;/div&gt;&lt;/div&gt;" style="points=[[0.145,0.145,0],[0.5,0,0],[0.855,0.145,0],[1,0.5,0],[0.855,0.855,0],[0.5,1,0],[0.145,0.855,0],[0,0.5,0]];shape=mxgraph.bpmn.event;html=1;verticalLabelPosition=bottom;labelBackgroundColor=#ffffff;verticalAlign=top;align=center;perimeter=ellipsePerimeter;outlineConnect=0;aspect=fixed;outline=standard;symbol=message;" vertex="1" parent="HoTX6iGjxj5oOvx8-iKF-3">
          <mxGeometry x="40" y="30" width="50" height="50" as="geometry" />
        </mxCell>
        <mxCell id="HoTX6iGjxj5oOvx8-iKF-7" value="" style="points=[[0.25,0.25,0],[0.5,0,0],[0.75,0.25,0],[1,0.5,0],[0.75,0.75,0],[0.5,1,0],[0.25,0.75,0],[0,0.5,0]];shape=mxgraph.bpmn.gateway2;html=1;verticalLabelPosition=bottom;labelBackgroundColor=#ffffff;verticalAlign=top;align=center;perimeter=rhombusPerimeter;outlineConnect=0;outline=none;symbol=none;" vertex="1" parent="HoTX6iGjxj5oOvx8-iKF-3">
          <mxGeometry x="180" y="30" width="50" height="50" as="geometry" />
        </mxCell>
        <mxCell id="HoTX6iGjxj5oOvx8-iKF-22" value="" style="points=[[0.145,0.145,0],[0.5,0,0],[0.855,0.145,0],[1,0.5,0],[0.855,0.855,0],[0.5,1,0],[0.145,0.855,0],[0,0.5,0]];shape=mxgraph.bpmn.event;html=1;verticalLabelPosition=bottom;labelBackgroundColor=#ffffff;verticalAlign=top;align=center;perimeter=ellipsePerimeter;outlineConnect=0;aspect=fixed;outline=end;symbol=terminate;" vertex="1" parent="HoTX6iGjxj5oOvx8-iKF-3">
          <mxGeometry x="180" y="160" width="50" height="50" as="geometry" />
        </mxCell>
        <mxCell id="HoTX6iGjxj5oOvx8-iKF-17" value="&lt;font face=&quot;Helvetica&quot; style=&quot;font-size: 12px;&quot;&gt;Издать приказ об увольнении сотрудника&amp;nbsp;&lt;/font&gt;" style="points=[[0.25,0,0],[0.5,0,0],[0.75,0,0],[1,0.25,0],[1,0.5,0],[1,0.75,0],[0.75,1,0],[0.5,1,0],[0.25,1,0],[0,0.75,0],[0,0.5,0],[0,0.25,0]];shape=mxgraph.bpmn.task2;whiteSpace=wrap;rectStyle=rounded;size=10;html=1;container=1;expand=0;collapsible=0;taskMarker=script;" vertex="1" parent="HoTX6iGjxj5oOvx8-iKF-3">
          <mxGeometry x="480" y="20" width="120" height="80" as="geometry" />
        </mxCell>
        <mxCell id="HoTX6iGjxj5oOvx8-iKF-26" value="&lt;span style=&quot;color: rgba(0, 0, 0, 0); font-family: monospace; font-size: 0px; text-align: start; background-color: rgb(236, 236, 236);&quot;&gt;%3CmxGraphModel%3E%3Croot%3E%3CmxCell%20id%3D%220%22%2F%3E%3CmxCell%20id%3D%221%22%20parent%3D%220%22%2F%3E%3CmxCell%20id%3D%222%22%20value%3D%22%22%20style%3D%22edgeStyle%3DelbowEdgeStyle%3BfontSize%3D12%3Bhtml%3D1%3BendArrow%3DblockThin%3BendFill%3D1%3Brounded%3D0%3BexitX%3D1%3BexitY%3D0.5%3BexitDx%3D0%3BexitDy%3D0%3BexitPerimeter%3D0%3B%22%20edge%3D%221%22%20parent%3D%221%22%3E%3CmxGeometry%20width%3D%22160%22%20relative%3D%221%22%20as%3D%22geometry%22%3E%3CmxPoint%20x%3D%2290%22%20y%3D%2275%22%20as%3D%22sourcePoint%22%2F%3E%3CmxPoint%20x%3D%22180%22%20y%3D%2275%22%20as%3D%22targetPoint%22%2F%3E%3C%2FmxGeometry%3E%3C%2FmxCell%3E%3C%2Froot%3E%3C%2FmxGraphModel%3E&lt;/span&gt;&lt;span style=&quot;font-size: 11px;&quot;&gt;Принято&amp;nbsp;&lt;/span&gt;&lt;div style=&quot;font-size: 11px;&quot;&gt;отрицательное&amp;nbsp;&lt;/div&gt;&lt;div style=&quot;font-size: 11px;&quot;&gt;решение&lt;/div&gt;" style="edgeStyle=elbowEdgeStyle;fontSize=12;html=1;endArrow=blockThin;endFill=1;rounded=0;exitX=0.5;exitY=1;exitDx=0;exitDy=0;exitPerimeter=0;entryX=0.5;entryY=0;entryDx=0;entryDy=0;entryPerimeter=0;" edge="1" parent="HoTX6iGjxj5oOvx8-iKF-3" source="HoTX6iGjxj5oOvx8-iKF-7" target="HoTX6iGjxj5oOvx8-iKF-22">
          <mxGeometry width="160" relative="1" as="geometry">
            <mxPoint x="100" y="65" as="sourcePoint" />
            <mxPoint x="190" y="65" as="targetPoint" />
          </mxGeometry>
        </mxCell>
        <mxCell id="HoTX6iGjxj5oOvx8-iKF-27" value="Принято&amp;nbsp;&lt;div&gt;положительное&amp;nbsp;&lt;/div&gt;&lt;div&gt;решение&lt;/div&gt;" style="edgeStyle=elbowEdgeStyle;fontSize=12;html=1;endArrow=blockThin;endFill=1;rounded=0;exitX=1;exitY=0.5;exitDx=0;exitDy=0;exitPerimeter=0;entryX=0;entryY=0.5;entryDx=0;entryDy=0;entryPerimeter=0;" edge="1" parent="HoTX6iGjxj5oOvx8-iKF-3" source="HoTX6iGjxj5oOvx8-iKF-7" target="HoTX6iGjxj5oOvx8-iKF-17">
          <mxGeometry width="160" relative="1" as="geometry">
            <mxPoint x="110" y="75" as="sourcePoint" />
            <mxPoint x="200" y="75" as="targetPoint" />
          </mxGeometry>
        </mxCell>
        <mxCell id="HoTX6iGjxj5oOvx8-iKF-4" value="Бухгалтерия" style="swimlane;html=1;startSize=20;horizontal=0;" vertex="1" parent="HoTX6iGjxj5oOvx8-iKF-2">
          <mxGeometry y="270" width="820" height="190" as="geometry">
            <mxRectangle y="270" width="820" height="30" as="alternateBounds" />
          </mxGeometry>
        </mxCell>
        <mxCell id="HoTX6iGjxj5oOvx8-iKF-18" value="Произвести окончательный расчет" style="points=[[0.25,0,0],[0.5,0,0],[0.75,0,0],[1,0.25,0],[1,0.5,0],[1,0.75,0],[0.75,1,0],[0.5,1,0],[0.25,1,0],[0,0.75,0],[0,0.5,0],[0,0.25,0]];shape=mxgraph.bpmn.task2;whiteSpace=wrap;rectStyle=rounded;size=10;html=1;container=1;expand=0;collapsible=0;taskMarker=user;" vertex="1" parent="HoTX6iGjxj5oOvx8-iKF-4">
          <mxGeometry x="640" y="50" width="120" height="80" as="geometry" />
        </mxCell>
        <mxCell id="HoTX6iGjxj5oOvx8-iKF-5" value="ИТ Отдел" style="swimlane;html=1;startSize=20;horizontal=0;" vertex="1" parent="HoTX6iGjxj5oOvx8-iKF-2">
          <mxGeometry y="460" width="820" height="300" as="geometry" />
        </mxCell>
        <mxCell id="HoTX6iGjxj5oOvx8-iKF-10" value="" style="points=[[0.145,0.145,0],[0.5,0,0],[0.855,0.145,0],[1,0.5,0],[0.855,0.855,0],[0.5,1,0],[0.145,0.855,0],[0,0.5,0]];shape=mxgraph.bpmn.event;html=1;verticalLabelPosition=bottom;labelBackgroundColor=#ffffff;verticalAlign=top;align=center;perimeter=ellipsePerimeter;outlineConnect=0;aspect=fixed;outline=end;symbol=terminate;" vertex="1" parent="HoTX6iGjxj5oOvx8-iKF-5">
          <mxGeometry x="720" y="125" width="50" height="50" as="geometry" />
        </mxCell>
        <mxCell id="HoTX6iGjxj5oOvx8-iKF-28" value="Удалить учетные записи уволенного сотрудника&amp;nbsp;" style="points=[[0.25,0,0],[0.5,0,0],[0.75,0,0],[1,0.25,0],[1,0.5,0],[1,0.75,0],[0.75,1,0],[0.5,1,0],[0.25,1,0],[0,0.75,0],[0,0.5,0],[0,0.25,0]];shape=mxgraph.bpmn.task2;whiteSpace=wrap;rectStyle=rounded;size=10;html=1;container=1;expand=0;collapsible=0;taskMarker=user;" vertex="1" parent="HoTX6iGjxj5oOvx8-iKF-5">
          <mxGeometry x="480" y="110" width="120" height="80" as="geometry" />
        </mxCell>
        <mxCell id="HoTX6iGjxj5oOvx8-iKF-30" value="" style="edgeStyle=elbowEdgeStyle;fontSize=12;html=1;endArrow=blockThin;endFill=1;rounded=0;exitX=1;exitY=0.5;exitDx=0;exitDy=0;exitPerimeter=0;entryX=0;entryY=0.5;entryDx=0;entryDy=0;entryPerimeter=0;" edge="1" parent="HoTX6iGjxj5oOvx8-iKF-5" source="HoTX6iGjxj5oOvx8-iKF-28" target="HoTX6iGjxj5oOvx8-iKF-10">
          <mxGeometry width="160" relative="1" as="geometry">
            <mxPoint x="560" y="240" as="sourcePoint" />
            <mxPoint x="720" y="240" as="targetPoint" />
          </mxGeometry>
        </mxCell>
        <mxCell id="HoTX6iGjxj5oOvx8-iKF-31" value="" style="edgeStyle=elbowEdgeStyle;fontSize=12;html=1;endArrow=blockThin;endFill=1;rounded=0;exitX=1;exitY=0.5;exitDx=0;exitDy=0;exitPerimeter=0;entryX=0.5;entryY=0;entryDx=0;entryDy=0;entryPerimeter=0;" edge="1" parent="HoTX6iGjxj5oOvx8-iKF-2" source="HoTX6iGjxj5oOvx8-iKF-17" target="HoTX6iGjxj5oOvx8-iKF-18">
          <mxGeometry width="160" relative="1" as="geometry">
            <mxPoint x="470" y="180" as="sourcePoint" />
            <mxPoint x="630" y="180" as="targetPoint" />
            <Array as="points">
              <mxPoint x="700" y="200" />
            </Array>
          </mxGeometry>
        </mxCell>
        <mxCell id="HoTX6iGjxj5oOvx8-iKF-32" value="" style="edgeStyle=elbowEdgeStyle;fontSize=12;html=1;endArrow=blockThin;endFill=1;rounded=0;exitX=0;exitY=0.5;exitDx=0;exitDy=0;exitPerimeter=0;entryX=0.5;entryY=0;entryDx=0;entryDy=0;entryPerimeter=0;" edge="1" parent="HoTX6iGjxj5oOvx8-iKF-2" source="HoTX6iGjxj5oOvx8-iKF-18" target="HoTX6iGjxj5oOvx8-iKF-28">
          <mxGeometry width="160" relative="1" as="geometry">
            <mxPoint x="700" y="420" as="sourcePoint" />
            <mxPoint x="520" y="500" as="targetPoint" />
            <Array as="points">
              <mxPoint x="540" y="470" />
            </Array>
          </mxGeometry>
        </mxCell>
        <mxCell id="HoTX6iGjxj5oOvx8-iKF-19" value="" style="points=[[0.25,0,0],[0.5,0,0],[0.75,0,0],[1,0.25,0],[1,0.5,0],[1,0.75,0],[0.75,1,0],[0.5,1,0],[0.25,1,0],[0,0.75,0],[0,0.5,0],[0,0.25,0]];shape=mxgraph.bpmn.task2;whiteSpace=wrap;rectStyle=rounded;size=10;html=1;container=1;expand=0;collapsible=0;taskMarker=manual;" vertex="1" parent="1">
          <mxGeometry x="-120" y="210" width="120" height="80" as="geometry" />
        </mxCell>
        <mxCell id="HoTX6iGjxj5oOvx8-iKF-20" value="" style="points=[[0.25,0.25,0],[0.5,0,0],[0.75,0.25,0],[1,0.5,0],[0.75,0.75,0],[0.5,1,0],[0.25,0.75,0],[0,0.5,0]];shape=mxgraph.bpmn.gateway2;html=1;verticalLabelPosition=bottom;labelBackgroundColor=#ffffff;verticalAlign=top;align=center;perimeter=rhombusPerimeter;outlineConnect=0;outline=end;symbol=general;" vertex="1" parent="1">
          <mxGeometry x="-60" y="480" width="50" height="50" as="geometry" />
        </mxCell>
        <mxCell id="HoTX6iGjxj5oOvx8-iKF-21" value="" style="points=[[0.25,0.25,0],[0.5,0,0],[0.75,0.25,0],[1,0.5,0],[0.75,0.75,0],[0.5,1,0],[0.25,0.75,0],[0,0.5,0]];shape=mxgraph.bpmn.gateway2;html=1;verticalLabelPosition=bottom;labelBackgroundColor=#ffffff;verticalAlign=top;align=center;perimeter=rhombusPerimeter;outlineConnect=0;outline=none;symbol=none;gwType=parallel;" vertex="1" parent="1">
          <mxGeometry x="-60" y="410" width="50" height="50" as="geometry" />
        </mxCell>
      </root>
    </mxGraphModel>
  </diagram>
</mxfile>
